<svg version="1.1" xmlns="http://www.w3.org/2000/svg" xmlns:xlink="http://www.w3.org/1999/xlink" x="0px" y="0px"
	 viewBox="0 0 50 50" style="enable-background:new 0 0 50 50;" xml:space="preserve">
<g>
	<path d="M23.6,7.3C23.8,7.1,24.1,7,24.3,7s0.5,0.1,0.6,0.2l17.1,17.2c0.2,0.2,0.3,0.4,0.3,0.6s-0.1,0.5-0.3,0.6L25,43
		c-0.2,0.2-0.4,0.2-0.6,0.2s-0.5-0.1-0.7-0.2L23,42.3c-0.2-0.2-0.2-0.4-0.2-0.6s0.1-0.5,0.2-0.7l14.5-14.5H7c-0.3,0-0.5-0.1-0.7-0.3
		s-0.3-0.4-0.3-0.7v-0.8c0-0.3,0.1-0.5,0.3-0.7s0.4-0.3,0.7-0.3h30.5L23,9.3c-0.2-0.2-0.2-0.5-0.2-0.7c0-0.3,0.1-0.5,0.2-0.6
		L23.6,7.3z"/>
</g>
</svg>
