<?xml version="1.0" encoding="utf-8"?>
<!-- Generator: Adobe Illustrator 21.1.0, SVG Export Plug-In . SVG Version: 6.00 Build 0)  -->
<svg version="1.1" id="Слой_1" xmlns="http://www.w3.org/2000/svg" xmlns:xlink="http://www.w3.org/1999/xlink" x="0px" y="0px"
	 viewBox="0 0 50 50" style="enable-background:new 0 0 50 50;" xml:space="preserve" fill="#fff">
<g>
	<path d="M24.9,43c-0.2,0.2-0.5,0.2-0.7,0.2s-0.5-0.1-0.6-0.2L6.4,25.8c-0.2-0.2-0.3-0.4-0.3-0.6s0.1-0.5,0.3-0.6L23.5,7.3
		C23.7,7.1,23.9,7,24.2,7s0.5,0.1,0.7,0.2l0.6,0.6c0.2,0.2,0.2,0.4,0.2,0.6s-0.1,0.5-0.2,0.7L10.9,23.7h30.5c0.3,0,0.5,0.1,0.7,0.3
		s0.3,0.4,0.3,0.7v0.8c0,0.3-0.1,0.5-0.3,0.7s-0.4,0.3-0.7,0.3H10.9L25.5,41c0.2,0.2,0.2,0.5,0.2,0.7c0,0.3-0.1,0.5-0.2,0.6L24.9,43
		z"/>
</g>
</svg>
